<svg width="48" height="24" viewBox="0 0 48 24" fill="none" xmlns="http://www.w3.org/2000/svg">
<rect width="48" height="24" rx="11" fill="#CFBEA8"/>
<path d="M22.1356 4C25.5243 4 28.2713 6.64143 28.2713 9.8998C28.2713 11.3359 27.7376 12.6522 26.8507 13.6753L31.4546 18.1021C31.6724 18.3115 31.6724 18.6511 31.4546 18.8606C31.261 19.0468 30.9604 19.0674 30.743 18.9226L30.6658 18.8606L26.062 14.4336C24.998 15.2865 23.6291 15.7996 22.1356 15.7996C18.747 15.7996 16 13.1582 16 9.8998C16 6.64143 18.747 4 22.1356 4ZM22.1356 5.07269C19.3631 5.07269 17.1156 7.23386 17.1156 9.8998C17.1156 12.5657 19.3631 14.7269 22.1356 14.7269C24.9081 14.7269 27.1557 12.5657 27.1557 9.8998C27.1557 7.23386 24.9081 5.07269 22.1356 5.07269Z" fill="#FAF8F1"/>
</svg>
